<svg xmlns="http://www.w3.org/2000/svg" version="1.1" xmlns:xlink="http://www.w3.org/1999/xlink" xmlns:svgjs="http://svgjs.dev/svgjs" width="2000" height="398" viewBox="0 0 2000 398"><g transform="matrix(1,0,0,1,-1.2121212121212466,-1.0910997225491883)"><svg viewBox="0 0 396 79" data-background-color="#ffffff" preserveAspectRatio="xMidYMid meet" height="398" width="2000" xmlns="http://www.w3.org/2000/svg" xmlns:xlink="http://www.w3.org/1999/xlink"><g id="tight-bounds" transform="matrix(1,0,0,1,0.2400000000000091,0.21657507055624592)"><svg viewBox="0 0 395.52 78.5668498588875" height="78.5668498588875" width="395.52"><g><svg viewBox="0 0 514.2015079785773 102.14197177024279" height="78.5668498588875" width="395.52"><g transform="matrix(1,0,0,1,118.68150797857729,14.116582205583484)"><svg viewBox="0 0 395.52 73.90880735907582" height="73.90880735907582" width="395.52"><g id="textblocktransform"><svg viewBox="0 0 395.52 73.90880735907582" height="73.90880735907582" width="395.52" id="textblock"><g><svg viewBox="0 0 395.52 73.90880735907582" height="73.90880735907582" width="395.52"><g transform="matrix(1,0,0,1,0,0)"><svg width="395.52" viewBox="2.93 -39.84 231.32999999999998 42.650000000000006" height="73.90880735907582" data-palette-color="#06cbcc"><g class="wordmark-text-0" data-fill-palette-color="primary" id="text-0"><path d="M19.04 1.27L18.46 1.27Q14.79 1.27 11.91-0.1 9.03-1.46 7.04-3.8 5.05-6.13 3.99-9.19 2.93-12.26 2.93-15.67L2.93-15.67Q2.93-19.51 4.02-22.74 5.1-25.98 7.06-28.48 9.01-30.98 11.71-32.7 14.4-34.42 17.63-35.25L17.63-35.25Q17.92-35.25 18.05-35.63 18.19-36.01 18.3-36.51 18.41-37.01 18.52-37.48 18.63-37.94 18.87-38.13L18.87-38.13Q27.47-36.96 30.37-35.47L30.37-35.47Q31.91-34.69 33.04-33.94 34.18-33.18 35.08-32.28 35.99-31.37 36.72-30.2 37.45-29.03 38.18-27.39L38.18-27.39Q38.94-25.68 39.31-23.14L39.31-23.14 39.33-22.85Q39.45-21.92 39.53-20.87 39.6-19.82 39.6-18.65L39.6-18.65Q39.6-14.43 38.22-11.02 36.84-7.62 34.4-5.03L34.4-5.03Q35.06-4.32 35.62-3.69 36.18-3.05 36.6-2.54 37.01-2.03 37.26-1.65 37.5-1.27 37.5-1.1L37.5-1.1Q37.5-0.83 37.07-0.45 36.65-0.07 36 0.37 35.35 0.81 34.59 1.25 33.84 1.68 33.18 2.03 32.52 2.37 32.06 2.59 31.59 2.81 31.54 2.81L31.54 2.81Q31.35 2.81 31.19 2.7 31.03 2.59 30.91 2.47L30.91 2.47 27.91-0.54Q25.83 0.32 23.66 0.79 21.48 1.27 19.04 1.27L19.04 1.27ZM13.82-16.65L13.82-16.65Q13.82-14.97 14.14-13.29 14.45-11.62 15.21-10.16L15.21-10.16Q15.23-10.13 15.23-10.11L15.23-10.11Q16.11-8.62 17.57-7.69 19.02-6.76 21.22-6.76L21.22-6.76 21.7-6.81 21.41-7.15Q20.85-7.79 20.48-8.28 20.12-8.76 20.12-9.01L20.12-9.01Q20.12-9.47 20.8-9.84L20.8-9.84 26.49-12.7Q26.64-12.77 26.73-12.77L26.73-12.77Q26.93-12.77 27.2-12.43 27.47-12.08 27.95-11.57L27.95-11.57Q28.64-13.18 28.93-15.12 29.22-17.07 29.22-18.82L29.22-18.82Q29.22-21.46 28.28-23.52 27.34-25.59 25.02-26.98L25.02-26.98Q24.24-27.44 23.35-27.64 22.46-27.83 21.39-27.83L21.39-27.83Q20.31-27.83 19.43-27.45 18.55-27.08 17.83-26.49 17.11-25.9 16.53-25.21 15.94-24.51 15.5-23.9L15.5-23.9Q15.04-23.27 14.72-22.34 14.4-21.41 14.2-20.41 13.99-19.41 13.9-18.41 13.82-17.41 13.82-16.65ZM70.48-27L68.19-3.03Q68.11-2.22 67.99-1.92 67.87-1.61 67.45-1.51L67.45-1.51Q65.38-0.93 63.12-0.33 60.86 0.27 58.74 1.25L58.74 1.25Q58.66 1.27 58.52 1.27L58.52 1.27Q58.32 1.27 58.29 1.17 58.25 1.07 58.25 0.95L58.25 0.95Q58.25 0.9 58.26 0.78 58.27 0.66 58.32 0.33 58.37 0 58.46-0.59 58.54-1.17 58.69-2.15L58.69-2.15Q55.95-0.37 53.84 0.45 51.73 1.27 50.1 1.27L50.1 1.27Q46.02 1.27 44.15-0.7 42.28-2.66 42.28-6.57L42.28-6.57Q42.28-7.28 42.31-8.02 42.33-8.76 42.45-9.55L42.45-9.55Q42.72-12.43 42.92-14.49 43.11-16.55 43.23-17.99 43.36-19.43 43.44-20.35 43.53-21.26 43.59-21.88 43.65-22.49 43.69-22.89 43.72-23.29 43.77-23.68L43.77-23.68Q43.87-24.46 43.96-24.78 44.04-25.1 44.5-25.2L44.5-25.2Q45.65-25.42 46.69-25.6 47.73-25.78 48.74-25.99 49.75-26.2 50.8-26.44 51.85-26.68 53.02-27.03L53.02-27.03Q53.07-27.03 53.12-27.04 53.17-27.05 53.22-27.05L53.22-27.05Q53.51-27.05 53.51-26.86L53.51-26.86 53.51-26.81Q53.42-25.98 53.34-25.24 53.27-24.51 53.2-23.74 53.12-22.97 53.04-22.09 52.95-21.22 52.83-20.06 52.71-18.9 52.54-17.38 52.37-15.87 52.12-13.87L52.12-13.87Q51.98-12.4 51.83-10.95 51.68-9.5 51.68-8.25L51.68-8.25Q51.68-7.57 51.78-6.99 51.88-6.42 52.13-6.02 52.39-5.62 52.81-5.4 53.22-5.18 53.88-5.18L53.88-5.18Q54.39-5.18 55.27-5.41 56.15-5.64 57.03-6.21 57.91-6.79 58.58-7.73 59.25-8.67 59.35-10.11L59.35-10.11Q59.52-12.52 59.65-14.15 59.79-15.77 59.89-16.88 59.98-17.99 60.06-18.75 60.13-19.51 60.19-20.2 60.25-20.9 60.3-21.69 60.35-22.49 60.4-23.68L60.4-23.68Q60.47-24.49 60.58-24.79 60.69-25.1 61.13-25.2L61.13-25.2Q63.35-25.63 65.67-26.09 67.99-26.54 70.21-27.25L70.21-27.25Q70.41-27.25 70.44-27.19 70.48-27.12 70.48-27L70.48-27ZM74.26-10.35L74.26-10.35Q74.58-13.7 74.9-16.97 75.21-20.24 75.46-23.68L75.46-23.68Q75.51-24.49 75.62-24.79 75.73-25.1 76.17-25.2L76.17-25.2Q78.24-25.61 80.51-26.06 82.78-26.51 84.91-27.22L84.91-27.22Q84.98-27.25 85.13-27.25L85.13-27.25Q85.4-27.25 85.4-27.05L85.4-27.05 83.2-3.27Q83.12-2.47 83.03-2.16 82.93-1.86 82.49-1.76L82.49-1.76Q80.41-1.12 78.29-0.34 76.17 0.44 73.8 1.25L73.8 1.25Q73.73 1.27 73.58 1.27L73.58 1.27Q73.31 1.27 73.31 1.03L73.31 1.03Q73.31 1 73.36 0.37 73.41-0.27 73.49-1.27 73.58-2.27 73.68-3.52 73.77-4.76 73.88-6.01 73.99-7.25 74.09-8.4 74.19-9.55 74.26-10.35ZM76.09-29.83L76.09-29.83Q76.17-30.88 76.2-31.45 76.24-32.01 76.26-32.29 76.29-32.57 76.29-32.64 76.29-32.71 76.3-32.75 76.31-32.79 76.33-32.9 76.34-33.01 76.36-33.36 76.39-33.72 76.44-34.4 76.48-35.08 76.58-36.28L76.58-36.28Q76.63-37.08 76.74-37.39 76.85-37.7 77.29-37.79L77.29-37.79Q79.37-38.21 81.64-38.66 83.91-39.11 86.03-39.82L86.03-39.82Q86.1-39.84 86.25-39.84L86.25-39.84Q86.32-39.7 86.45-39.65L86.45-39.65 86.52-39.6 85.98-32.91Q85.91-32.1 85.8-31.79 85.69-31.47 85.27-31.4L85.27-31.4Q83.2-31.01 81.07-30.54 78.95-30.08 76.58-29.61L76.58-29.61Q76.51-29.59 76.36-29.59L76.36-29.59Q76.09-29.59 76.09-29.83ZM90.25-20.65L90.25-20.65Q90.54-24 90.73-27.27 90.91-30.54 91.13-33.98L91.13-33.98Q91.18-34.79 91.29-35.1 91.4-35.4 91.84-35.5L91.84-35.5Q94.11-35.91 96.39-36.34 98.67-36.77 100.97-37.48L100.97-37.48Q101.04-37.5 101.19-37.5L101.19-37.5Q101.46-37.5 101.46-37.26L101.46-37.26 98.28-2.39 98.28-1.98Q98.28-1.76 98.11-1.62 97.94-1.49 97.31-1.32L97.31-1.32 90.91 1.03Q90.64 1.15 90.2 1.28 89.76 1.42 89.35 1.42L89.35 1.42Q89.01 1.42 88.75 1.25 88.49 1.07 88.49 0.66L88.49 0.66 88.49 0.51Q88.69-1.95 88.87-4.31 89.06-6.67 89.26-9.18 89.47-11.69 89.71-14.5 89.96-17.31 90.25-20.65ZM105.43-20.65L105.43-20.65Q105.73-24 105.91-27.27 106.09-30.54 106.31-33.98L106.31-33.98Q106.36-34.79 106.47-35.1 106.58-35.4 107.02-35.5L107.02-35.5Q109.29-35.91 111.57-36.34 113.86-36.77 116.15-37.48L116.15-37.48Q116.23-37.5 116.37-37.5L116.37-37.5Q116.64-37.5 116.64-37.26L116.64-37.26 113.47-2.39 113.47-1.98Q113.47-1.76 113.3-1.62 113.12-1.49 112.49-1.32L112.49-1.32 106.09 1.03Q105.82 1.15 105.39 1.28 104.95 1.42 104.53 1.42L104.53 1.42Q104.19 1.42 103.93 1.25 103.68 1.07 103.68 0.66L103.68 0.66 103.68 0.51Q103.87-1.95 104.05-4.31 104.24-6.67 104.45-9.18 104.65-11.69 104.9-14.5 105.14-17.31 105.43-20.65ZM143.71-20.07L143.71-20.07Q143.62-19.7 143.35-19.02 143.08-18.33 142.74-17.47 142.39-16.6 141.98-15.64 141.56-14.67 141.17-13.75L141.17-13.75Q141-13.33 140.77-13.13 140.54-12.94 139.83-12.92L139.83-12.92 132.7-12.79 131.82-1.95Q131.8-1.73 131.7-1.53 131.6-1.32 131.41-1.2L131.41-1.2Q131.34-1.15 130.83-0.92 130.33-0.68 129.58-0.37 128.82-0.05 127.92 0.32 127.01 0.68 126.13 0.99 125.26 1.29 124.52 1.5 123.79 1.71 123.38 1.71L123.38 1.71Q122.89 1.71 122.49 1.53 122.08 1.34 122.08 0.78L122.08 0.78Q122.06-0.44 122.14-1.92 122.23-3.39 122.35-4.92 122.47-6.45 122.62-7.92 122.77-9.4 122.86-10.62L122.86-10.62 123.03-12.67Q120.98-12.67 120.1-12.78 119.23-12.89 119.23-13.35L119.23-13.35Q119.23-13.67 119.59-14.18L119.59-14.18Q120.1-14.89 120.75-15.89 121.4-16.89 122-17.85 122.59-18.8 123.05-19.53 123.5-20.26 123.62-20.43L123.62-20.43 124.08-27.15Q123.62-27.15 123.28-27.14 122.94-27.12 122.66-27.11 122.38-27.1 122.13-27.09 121.89-27.08 121.62-27.08L121.62-27.08Q120.45-27.08 119.95-27.21 119.45-27.34 119.45-27.71L119.45-27.71Q119.45-27.88 119.74-28.42 120.03-28.96 120.46-29.65 120.89-30.35 121.39-31.12 121.89-31.88 122.28-32.54L122.28-32.54 123.74-35.03 134.85-35.42Q137-35.5 139.12-35.58 141.25-35.67 143.04-35.74 144.84-35.82 146.13-35.88 147.42-35.94 147.94-35.96L147.94-35.96Q147.96-35.96 148.07-35.95 148.18-35.94 148.3-35.88 148.43-35.82 148.53-35.67 148.64-35.52 148.64-35.25L148.64-35.25Q148.64-35.11 148.3-34.28 147.96-33.45 147.33-31.81L147.33-31.81 146.25-28.98Q146.08-28.56 145.86-28.34 145.64-28.13 144.93-28.1L144.93-28.1Q144.1-28.08 143.25-28.03 142.39-27.98 141.49-27.93L141.49-27.93 134.07-27.56Q133.92-26.61 133.86-26.15 133.8-25.68 133.79-25.38 133.78-25.07 133.78-24.77 133.78-24.46 133.75-23.8L133.75-23.8Q133.73-23.34 133.69-23.02 133.65-22.71 133.62-22.4 133.58-22.09 133.54-21.75 133.51-21.41 133.48-20.9L133.48-20.9Q135.09-20.95 136.65-21 138.2-21.04 139.5-21.09 140.81-21.14 141.76-21.18 142.71-21.22 143.1-21.22L143.1-21.22Q143.3-21.22 143.54-21.07 143.79-20.92 143.79-20.51L143.79-20.51Q143.79-20.31 143.71-20.07ZM162.88-27.25L162.88-27.25Q165.19-27.25 167.09-26.38 168.98-25.51 170.33-24.13 171.69-22.75 172.42-21.04 173.15-19.34 173.15-17.63L173.15-17.63Q173.15-16.11 172.23-14.59 171.3-13.06 169.63-11.84 167.95-10.62 165.61-9.86 163.27-9.11 160.46-9.11L160.46-9.11Q158.99-9.11 157.38-9.4L157.38-9.4Q157.48-8.35 157.99-7.59 158.51-6.84 159.29-6.35 160.07-5.86 161.06-5.63 162.05-5.4 163.1-5.4L163.1-5.4Q164.27-5.4 165.35-5.6 166.44-5.81 167.44-6.15 168.44-6.49 169.37-6.91 170.3-7.32 171.13-7.74L171.13-7.74Q171.35-7.79 171.51-7.82 171.66-7.86 171.81-7.86L171.81-7.86Q171.81-7.86 171.8-7.47 171.79-7.08 171.79-6.37 171.79-5.66 171.77-4.66 171.76-3.66 171.74-2.44L171.74-2.44Q171.81-2.32 171.84-2.2 171.86-2.08 171.86-2L171.86-2Q171.86-1.71 171.32-1.37 170.79-1.03 169.92-0.66 169.05-0.29 167.94 0.05 166.83 0.39 165.68 0.67 164.54 0.95 163.46 1.11 162.39 1.27 161.58 1.27L161.58 1.27Q158.94 1.27 156.47 0.35 153.99-0.56 152.07-2.27 150.16-3.98 149.01-6.42 147.86-8.86 147.86-11.91L147.86-11.91Q147.86-15.11 148.96-17.91 150.06-20.7 152.05-22.78 154.04-24.85 156.8-26.05 159.56-27.25 162.88-27.25ZM162.58-20.75L162.58-20.75Q161.58-20.75 160.74-20.32 159.9-19.9 159.2-19.1 158.51-18.31 157.99-17.2 157.48-16.09 157.16-14.75L157.16-14.75Q159.68-15.19 161.34-15.67 163-16.16 164-16.66 165-17.16 165.41-17.66 165.83-18.16 165.83-18.63L165.83-18.63Q165.83-19.07 165.5-19.46 165.17-19.85 164.68-20.14 164.19-20.43 163.62-20.59 163.05-20.75 162.58-20.75ZM190.75-27.25L190.75-27.25Q193.07-27.25 194.97-26.38 196.86-25.51 198.21-24.13 199.57-22.75 200.3-21.04 201.03-19.34 201.03-17.63L201.03-17.63Q201.03-16.11 200.1-14.59 199.18-13.06 197.5-11.84 195.83-10.62 193.49-9.86 191.14-9.11 188.34-9.11L188.34-9.11Q186.87-9.11 185.26-9.4L185.26-9.4Q185.36-8.35 185.87-7.59 186.38-6.84 187.17-6.35 187.95-5.86 188.94-5.63 189.92-5.4 190.97-5.4L190.97-5.4Q192.15-5.4 193.23-5.6 194.32-5.81 195.32-6.15 196.32-6.49 197.25-6.91 198.18-7.32 199.01-7.74L199.01-7.74Q199.23-7.79 199.38-7.82 199.54-7.86 199.69-7.86L199.69-7.86Q199.69-7.86 199.68-7.47 199.67-7.08 199.67-6.37 199.67-5.66 199.65-4.66 199.64-3.66 199.62-2.44L199.62-2.44Q199.69-2.32 199.71-2.2 199.74-2.08 199.74-2L199.74-2Q199.74-1.71 199.2-1.37 198.66-1.03 197.8-0.66 196.93-0.29 195.82 0.05 194.71 0.39 193.56 0.67 192.41 0.95 191.34 1.11 190.27 1.27 189.46 1.27L189.46 1.27Q186.82 1.27 184.35 0.35 181.87-0.56 179.95-2.27 178.03-3.98 176.89-6.42 175.74-8.86 175.74-11.91L175.74-11.91Q175.74-15.11 176.84-17.91 177.94-20.7 179.93-22.78 181.92-24.85 184.67-26.05 187.43-27.25 190.75-27.25ZM190.46-20.75L190.46-20.75Q189.46-20.75 188.62-20.32 187.78-19.9 187.08-19.1 186.38-18.31 185.87-17.2 185.36-16.09 185.04-14.75L185.04-14.75Q187.56-15.19 189.22-15.67 190.88-16.16 191.88-16.66 192.88-17.16 193.29-17.66 193.71-18.16 193.71-18.63L193.71-18.63Q193.71-19.07 193.38-19.46 193.05-19.85 192.56-20.14 192.07-20.43 191.5-20.59 190.92-20.75 190.46-20.75ZM222.05-8.33L222.56-13.89Q222.64-14.67 222.72-15.53 222.81-16.38 222.93-17.31L222.93-17.31Q222.37-18.77 221.34-19.69 220.32-20.61 218.78-20.61L218.78-20.61Q217.27-20.61 216.22-19.74 215.17-18.87 214.53-17.6 213.9-16.33 213.62-14.93 213.33-13.53 213.33-12.45L213.33-12.45Q213.33-11.13 213.49-9.84 213.65-8.54 214.01-7.5 214.36-6.45 214.95-5.8 215.53-5.15 216.41-5.15L216.41-5.15Q218.56-5.22 219.9-6.13 221.24-7.03 222.05-8.33L222.05-8.33ZM234.23-36.84L231.08-2.47Q231.08-2.42 231.07-2.36 231.06-2.29 231.06-2.25L231.06-2.25Q231.06-2.12 231.07-2.05 231.08-1.98 231.08-1.9L231.08-1.9Q231.08-1.68 230.92-1.55 230.77-1.42 230.11-1.25L230.11-1.25 223.56 0.88Q223.3 0.98 222.86 1.12 222.42 1.27 222 1.27L222 1.27Q221.66 1.27 221.4 1.1 221.15 0.93 221.15 0.46L221.15 0.46Q221.15 0.02 221.16-0.24 221.17-0.51 221.18-0.74 221.2-0.98 221.23-1.25 221.27-1.51 221.32-1.95L221.32-1.95Q219.49-0.49 217.55 0.39 215.61 1.27 213.46 1.27L213.46 1.27Q211.11 1.27 209.29 0.16 207.48-0.95 206.23-2.82 204.98-4.69 204.34-7.09 203.69-9.5 203.69-12.11L203.69-12.11Q203.69-15.5 204.8-18.3 205.91-21.09 207.82-23.08 209.72-25.07 212.26-26.16 214.8-27.25 217.66-27.25L217.66-27.25Q219.19-27.25 220.6-26.44 222-25.63 223.25-24.37L223.25-24.37Q223.32-25.56 223.42-26.97 223.52-28.37 223.61-29.82 223.71-31.27 223.81-32.69 223.91-34.11 223.98-35.28L223.98-35.28Q223.98-35.5 224.14-35.63 224.3-35.77 224.96-35.94L224.96-35.94 231.82-37.57Q232.08-37.62 232.52-37.79 232.96-37.96 233.38-37.96L233.38-37.96Q233.7-37.96 233.98-37.82 234.26-37.67 234.26-37.26L234.26-37.26Q234.26-37.21 234.25-37.05 234.23-36.89 234.23-36.84L234.23-36.84Z" fill="#06cbcc" data-fill-palette-color="primary"></path></g></svg></g></svg></g></svg></g></svg></g><g><svg viewBox="0 0 101.2334123724761 102.14197177024279" height="102.14197177024279" width="101.2334123724761"><g><svg xmlns="http://www.w3.org/2000/svg" xmlns:xlink="http://www.w3.org/1999/xlink" version="1.1" x="0" y="0" viewBox="6.338 7 76.32400000000001 77.009" enable-background="new 0 0 89 89" xml:space="preserve" height="102.14197177024279" width="101.2334123724761" class="icon-icon-0" data-fill-palette-color="accent" id="icon-0"><rect x="6.338" y="7" width="76.324" height="19.885" fill="#07f5d6" data-fill-palette-color="accent"></rect><rect x="6.338" y="30.5" width="26.111" height="26.109" fill="#07f5d6" data-fill-palette-color="accent"></rect><rect x="37.872" y="31.1" width="44.79" height="4.017" fill="#07f5d6" data-fill-palette-color="accent"></rect><rect x="37.872" y="37.932" width="44.79" height="4.017" fill="#07f5d6" data-fill-palette-color="accent"></rect><rect x="37.872" y="45.041" width="44.79" height="4.017" fill="#07f5d6" data-fill-palette-color="accent"></rect><rect x="37.872" y="52.124" width="44.79" height="4.018" fill="#07f5d6" data-fill-palette-color="accent"></rect><rect x="6.338" y="58.966" width="76.324" height="4.018" fill="#07f5d6" data-fill-palette-color="accent"></rect><rect x="6.338" y="65.797" width="76.324" height="4.018" fill="#07f5d6" data-fill-palette-color="accent"></rect><rect x="6.338" y="72.907" width="76.324" height="4.018" fill="#07f5d6" data-fill-palette-color="accent"></rect><rect x="6.338" y="79.991" width="76.324" height="4.018" fill="#07f5d6" data-fill-palette-color="accent"></rect></svg></g></svg></g></svg></g><defs></defs></svg><rect width="395.52" height="78.5668498588875" fill="none" stroke="none" visibility="hidden"></rect></g></svg></g></svg>